<svg width="2700" height="450" viewBox="0 0 2700 450" fill="none" xmlns="http://www.w3.org/2000/svg">
  <path d="M722.727 226.971C722.727 163.935 769.753 117.908 828.787 117.908C864.808 117.908 892.824 132.917 911.835 157.931L896.826 168.938C880.817 147.926 858.804 135.919 829.788 135.919C780.76 135.919 744.739 174.941 744.739 226.971C744.739 279.001 781.76 318.023 831.789 318.023C861.806 318.023 886.82 305.015 902.829 283.003L918.839 294.009C897.827 322.025 868.81 337.034 830.788 337.034C769.753 336.033 722.727 290.007 722.727 226.971Z" fill="#3A3A3A"/>
  <path d="M1075.94 334.032H1055.92V119.909H1118.96C1163.99 119.909 1189 147.925 1189 183.946C1189 212.962 1172.99 234.975 1143.97 242.979L1199.01 333.031H1175.99L1122.96 245.981H1117.96H1075.94V334.032ZM1116.96 228.972C1150.98 228.972 1166.99 211.962 1166.99 183.946C1166.99 155.93 1150.98 137.919 1116.96 137.919H1075.94V228.972H1116.96Z" fill="#3A3A3A"/>
  <path d="M1334.08 119.909H1460.15V137.919H1354.09V216.965H1449.15V234.975H1354.09V315.021H1465.15V334.032H1334.08V119.909Z" fill="#3A3A3A"/>
  <path d="M1605.23 119.909H1658.26C1728.3 119.909 1769.33 163.934 1769.33 226.97C1769.33 290.006 1728.3 334.032 1658.26 334.032H1605.23V119.909ZM1656.26 315.021C1718.3 315.021 1748.31 279 1748.31 226.97C1748.31 174.941 1718.3 138.92 1656.26 138.92H1625.24V315.021H1656.26Z" fill="#3A3A3A"/>
  <path d="M1909.4 119.909H2036.47V137.919H1929.41V216.965H2025.47V234.975H1929.41V315.021H2040.48V334.032H1909.4V119.909Z" fill="#3A3A3A"/>
  <path d="M2201.58 334.032H2181.57V119.909H2244.6C2289.63 119.909 2314.64 147.925 2314.64 183.946C2314.64 212.962 2298.64 234.975 2269.62 242.979L2324.65 333.031H2301.64L2248.61 245.981H2243.6H2201.58V334.032ZM2242.6 228.972C2276.62 228.972 2292.63 211.962 2292.63 183.946C2292.63 155.93 2276.62 137.919 2242.6 137.919H2201.58V228.972H2242.6Z" fill="#3A3A3A"/>
  <path d="M2588.8 281.004H2493.75L2472.73 334.034H2452.72L2540.77 115.909H2542.77L2631.82 334.034H2610.81L2588.8 281.004ZM2501.75 262.993H2581.8L2541.77 161.935L2501.75 262.993Z" fill="#3A3A3A"/>
  <rect x="327.273" y="327.273" width="122.727" height="122.727" fill="#CFCFCF"/>
  <path d="M0 0H450V286.364H327.273V122.727H122.727V327.273H286.364V450H0V0Z" fill="#E55F4C"/>
</svg>
